<svg xmlns="http://www.w3.org/2000/svg" viewBox="0 0 640 640" width="640" height="640" shape-rendering="crispEdges" role="img" aria-label="Low-poly geometric composition recreated from spires4.jpg">
  <title>Spires (low-poly recreation of inspo/spires4.jpg)</title>
  <rect width="640" height="640" fill="#2c3e3d"/>
  <polygon points="-80.0,0.0 -120.0,69.3 -40.0,69.3" fill="#2c3e3d"/>
  <polygon points="-40.0,69.3 -80.0,0.0 0.0,0.0" fill="#2c3e3d"/>
  <polygon points="0.0,0.0 -40.0,69.3 40.0,69.3" fill="#2c3e3d"/>
  <polygon points="40.0,69.3 0.0,0.0 80.0,0.0" fill="#2c3e3d"/>
  <polygon points="80.0,0.0 40.0,69.3 120.0,69.3" fill="#2c3e3d"/>
  <polygon points="120.0,69.3 80.0,0.0 160.0,0.0" fill="#2c3e3d"/>
  <polygon points="160.0,0.0 120.0,69.3 200.0,69.3" fill="#2c3e3d"/>
  <polygon points="200.0,69.3 160.0,0.0 240.0,0.0" fill="#2c3e3d"/>
  <polygon points="240.0,0.0 200.0,69.3 280.0,69.3" fill="#2c3e3d"/>
  <polygon points="280.0,69.3 240.0,0.0 320.0,0.0" fill="#14201c"/>
  <polygon points="320.0,0.0 280.0,69.3 360.0,69.3" fill="#14201c"/>
  <polygon points="360.0,69.3 320.0,0.0 400.0,0.0" fill="#14201c"/>
  <polygon points="400.0,0.0 360.0,69.3 440.0,69.3" fill="#14201c"/>
  <polygon points="440.0,69.3 400.0,0.0 480.0,0.0" fill="#14201c"/>
  <polygon points="480.0,0.0 440.0,69.3 520.0,69.3" fill="#eceeec"/>
  <polygon points="520.0,69.3 480.0,0.0 560.0,0.0" fill="#14201c"/>
  <polygon points="560.0,0.0 520.0,69.3 600.0,69.3" fill="#0f5e54"/>
  <polygon points="600.0,69.3 560.0,0.0 640.0,0.0" fill="#0f8c7e"/>
  <polygon points="640.0,0.0 600.0,69.3 680.0,69.3" fill="#2c3e3d"/>
  <polygon points="680.0,69.3 640.0,0.0 720.0,0.0" fill="#14201c"/>
  <polygon points="720.0,0.0 680.0,69.3 760.0,69.3" fill="#2c3e3d"/>
  <polygon points="-40.0,69.3 -80.0,138.6 0.0,138.6" fill="#2c3e3d"/>
  <polygon points="-80.0,138.6 -120.0,69.3 -40.0,69.3" fill="#2c3e3d"/>
  <polygon points="40.0,69.3 0.0,138.6 80.0,138.6" fill="#2c3e3d"/>
  <polygon points="0.0,138.6 -40.0,69.3 40.0,69.3" fill="#2c3e3d"/>
  <polygon points="120.0,69.3 80.0,138.6 160.0,138.6" fill="#14201c"/>
  <polygon points="80.0,138.6 40.0,69.3 120.0,69.3" fill="#2c3e3d"/>
  <polygon points="200.0,69.3 160.0,138.6 240.0,138.6" fill="#14201c"/>
  <polygon points="160.0,138.6 120.0,69.3 200.0,69.3" fill="#2c3e3d"/>
  <polygon points="280.0,69.3 240.0,138.6 320.0,138.6" fill="#2c3e3d"/>
  <polygon points="240.0,138.6 200.0,69.3 280.0,69.3" fill="#14201c"/>
  <polygon points="360.0,69.3 320.0,138.6 400.0,138.6" fill="#eceeec"/>
  <polygon points="320.0,138.6 280.0,69.3 360.0,69.3" fill="#14201c"/>
  <polygon points="440.0,69.3 400.0,138.6 480.0,138.6" fill="#16b8a3"/>
  <polygon points="400.0,138.6 360.0,69.3 440.0,69.3" fill="#eceeec"/>
  <polygon points="520.0,69.3 480.0,138.6 560.0,138.6" fill="#bcc1be"/>
  <polygon points="480.0,138.6 440.0,69.3 520.0,69.3" fill="#16b8a3"/>
  <polygon points="600.0,69.3 560.0,138.6 640.0,138.6" fill="#eceeec"/>
  <polygon points="560.0,138.6 520.0,69.3 600.0,69.3" fill="#eceeec"/>
  <polygon points="680.0,69.3 640.0,138.6 720.0,138.6" fill="#2c3e3d"/>
  <polygon points="640.0,138.6 600.0,69.3 680.0,69.3" fill="#2c3e3d"/>
  <polygon points="720.0,138.6 680.0,69.3 760.0,69.3" fill="#2c3e3d"/>
  <polygon points="-80.0,138.6 -120.0,207.8 -40.0,207.8" fill="#2c3e3d"/>
  <polygon points="-40.0,207.8 -80.0,138.6 0.0,138.6" fill="#2c3e3d"/>
  <polygon points="0.0,138.6 -40.0,207.8 40.0,207.8" fill="#2c3e3d"/>
  <polygon points="40.0,207.8 0.0,138.6 80.0,138.6" fill="#2c3e3d"/>
  <polygon points="80.0,138.6 40.0,207.8 120.0,207.8" fill="#14201c"/>
  <polygon points="120.0,207.8 80.0,138.6 160.0,138.6" fill="#2c3e3d"/>
  <polygon points="160.0,138.6 120.0,207.8 200.0,207.8" fill="#14201c"/>
  <polygon points="200.0,207.8 160.0,138.6 240.0,138.6" fill="#2c3e3d"/>
  <polygon points="240.0,138.6 200.0,207.8 280.0,207.8" fill="#2c3e3d"/>
  <polygon points="280.0,207.8 240.0,138.6 320.0,138.6" fill="#2c3e3d"/>
  <polygon points="320.0,138.6 280.0,207.8 360.0,207.8" fill="#2c3e3d"/>
  <polygon points="360.0,207.8 320.0,138.6 400.0,138.6" fill="#808b88"/>
  <polygon points="400.0,138.6 360.0,207.8 440.0,207.8" fill="#eceeec"/>
  <polygon points="440.0,207.8 400.0,138.6 480.0,138.6" fill="#bcc1be"/>
  <polygon points="480.0,138.6 440.0,207.8 520.0,207.8" fill="#eceeec"/>
  <polygon points="520.0,207.8 480.0,138.6 560.0,138.6" fill="#eceeec"/>
  <polygon points="560.0,138.6 520.0,207.8 600.0,207.8" fill="#eceeec"/>
  <polygon points="600.0,207.8 560.0,138.6 640.0,138.6" fill="#eceeec"/>
  <polygon points="640.0,138.6 600.0,207.8 680.0,207.8" fill="#2c3e3d"/>
  <polygon points="680.0,207.8 640.0,138.6 720.0,138.6" fill="#2c3e3d"/>
  <polygon points="720.0,138.6 680.0,207.8 760.0,207.8" fill="#2c3e3d"/>
  <polygon points="-40.0,207.8 -80.0,277.1 0.0,277.1" fill="#2c3e3d"/>
  <polygon points="-80.0,277.1 -120.0,207.8 -40.0,207.8" fill="#2c3e3d"/>
  <polygon points="40.0,207.8 0.0,277.1 80.0,277.1" fill="#2c3e3d"/>
  <polygon points="0.0,277.1 -40.0,207.8 40.0,207.8" fill="#2c3e3d"/>
  <polygon points="120.0,207.8 80.0,277.1 160.0,277.1" fill="#14201c"/>
  <polygon points="80.0,277.1 40.0,207.8 120.0,207.8" fill="#2c3e3d"/>
  <polygon points="200.0,207.8 160.0,277.1 240.0,277.1" fill="#2c3e3d"/>
  <polygon points="160.0,277.1 120.0,207.8 200.0,207.8" fill="#2c3e3d"/>
  <polygon points="280.0,207.8 240.0,277.1 320.0,277.1" fill="#808b88"/>
  <polygon points="240.0,277.1 200.0,207.8 280.0,207.8" fill="#808b88"/>
  <polygon points="360.0,207.8 320.0,277.1 400.0,277.1" fill="#808b88"/>
  <polygon points="320.0,277.1 280.0,207.8 360.0,207.8" fill="#2c3e3d"/>
  <polygon points="440.0,207.8 400.0,277.1 480.0,277.1" fill="#bcc1be"/>
  <polygon points="400.0,277.1 360.0,207.8 440.0,207.8" fill="#eceeec"/>
  <polygon points="520.0,207.8 480.0,277.1 560.0,277.1" fill="#eceeec"/>
  <polygon points="480.0,277.1 440.0,207.8 520.0,207.8" fill="#eceeec"/>
  <polygon points="600.0,207.8 560.0,277.1 640.0,277.1" fill="#eceeec"/>
  <polygon points="560.0,277.1 520.0,207.8 600.0,207.8" fill="#eceeec"/>
  <polygon points="680.0,207.8 640.0,277.1 720.0,277.1" fill="#0f5e54"/>
  <polygon points="640.0,277.1 600.0,207.8 680.0,207.8" fill="#2c3e3d"/>
  <polygon points="720.0,277.1 680.0,207.8 760.0,207.8" fill="#2c3e3d"/>
  <polygon points="-80.0,277.1 -120.0,346.4 -40.0,346.4" fill="#14201c"/>
  <polygon points="-40.0,346.4 -80.0,277.1 0.0,277.1" fill="#2c3e3d"/>
  <polygon points="0.0,277.1 -40.0,346.4 40.0,346.4" fill="#14201c"/>
  <polygon points="40.0,346.4 0.0,277.1 80.0,277.1" fill="#2c3e3d"/>
  <polygon points="80.0,277.1 40.0,346.4 120.0,346.4" fill="#2c3e3d"/>
  <polygon points="120.0,346.4 80.0,277.1 160.0,277.1" fill="#2c3e3d"/>
  <polygon points="160.0,277.1 120.0,346.4 200.0,346.4" fill="#bcc1be"/>
  <polygon points="200.0,346.4 160.0,277.1 240.0,277.1" fill="#2c3e3d"/>
  <polygon points="240.0,277.1 200.0,346.4 280.0,346.4" fill="#16b8a3"/>
  <polygon points="280.0,346.4 240.0,277.1 320.0,277.1" fill="#808b88"/>
  <polygon points="320.0,277.1 280.0,346.4 360.0,346.4" fill="#16b8a3"/>
  <polygon points="360.0,346.4 320.0,277.1 400.0,277.1" fill="#808b88"/>
  <polygon points="400.0,277.1 360.0,346.4 440.0,346.4" fill="#bcc1be"/>
  <polygon points="440.0,346.4 400.0,277.1 480.0,277.1" fill="#eceeec"/>
  <polygon points="480.0,277.1 440.0,346.4 520.0,346.4" fill="#eceeec"/>
  <polygon points="520.0,346.4 480.0,277.1 560.0,277.1" fill="#eceeec"/>
  <polygon points="560.0,277.1 520.0,346.4 600.0,346.4" fill="#2c3e3d"/>
  <polygon points="600.0,346.4 560.0,277.1 640.0,277.1" fill="#16b8a3"/>
  <polygon points="640.0,277.1 600.0,346.4 680.0,346.4" fill="#2c3e3d"/>
  <polygon points="680.0,346.4 640.0,277.1 720.0,277.1" fill="#0f5e54"/>
  <polygon points="720.0,277.1 680.0,346.4 760.0,346.4" fill="#2c3e3d"/>
  <polygon points="-40.0,346.4 -80.0,415.7 0.0,415.7" fill="#2c3e3d"/>
  <polygon points="-80.0,415.7 -120.0,346.4 -40.0,346.4" fill="#2c3e3d"/>
  <polygon points="40.0,346.4 0.0,415.7 80.0,415.7" fill="#2c3e3d"/>
  <polygon points="0.0,415.7 -40.0,346.4 40.0,346.4" fill="#2c3e3d"/>
  <polygon points="120.0,346.4 80.0,415.7 160.0,415.7" fill="#eceeec"/>
  <polygon points="80.0,415.7 40.0,346.4 120.0,346.4" fill="#2c3e3d"/>
  <polygon points="200.0,346.4 160.0,415.7 240.0,415.7" fill="#16b8a3"/>
  <polygon points="160.0,415.7 120.0,346.4 200.0,346.4" fill="#eceeec"/>
  <polygon points="280.0,346.4 240.0,415.7 320.0,415.7" fill="#16b8a3"/>
  <polygon points="240.0,415.7 200.0,346.4 280.0,346.4" fill="#16b8a3"/>
  <polygon points="360.0,346.4 320.0,415.7 400.0,415.7" fill="#bcc1be"/>
  <polygon points="320.0,415.7 280.0,346.4 360.0,346.4" fill="#16b8a3"/>
  <polygon points="440.0,346.4 400.0,415.7 480.0,415.7" fill="#eceeec"/>
  <polygon points="400.0,415.7 360.0,346.4 440.0,346.4" fill="#eceeec"/>
  <polygon points="520.0,346.4 480.0,415.7 560.0,415.7" fill="#eceeec"/>
  <polygon points="480.0,415.7 440.0,346.4 520.0,346.4" fill="#eceeec"/>
  <polygon points="600.0,346.4 560.0,415.7 640.0,415.7" fill="#eceeec"/>
  <polygon points="560.0,415.7 520.0,346.4 600.0,346.4" fill="#bcc1be"/>
  <polygon points="680.0,346.4 640.0,415.7 720.0,415.7" fill="#2c3e3d"/>
  <polygon points="640.0,415.7 600.0,346.4 680.0,346.4" fill="#2c3e3d"/>
  <polygon points="720.0,415.7 680.0,346.4 760.0,346.4" fill="#2c3e3d"/>
  <polygon points="-80.0,415.7 -120.0,485.0 -40.0,485.0" fill="#2c3e3d"/>
  <polygon points="-40.0,485.0 -80.0,415.7 0.0,415.7" fill="#14201c"/>
  <polygon points="0.0,415.7 -40.0,485.0 40.0,485.0" fill="#2c3e3d"/>
  <polygon points="40.0,485.0 0.0,415.7 80.0,415.7" fill="#14201c"/>
  <polygon points="80.0,415.7 40.0,485.0 120.0,485.0" fill="#eceeec"/>
  <polygon points="120.0,485.0 80.0,415.7 160.0,415.7" fill="#eceeec"/>
  <polygon points="160.0,415.7 120.0,485.0 200.0,485.0" fill="#16b8a3"/>
  <polygon points="200.0,485.0 160.0,415.7 240.0,415.7" fill="#0f8c7e"/>
  <polygon points="240.0,415.7 200.0,485.0 280.0,485.0" fill="#0f8c7e"/>
  <polygon points="280.0,485.0 240.0,415.7 320.0,415.7" fill="#0f8c7e"/>
  <polygon points="320.0,415.7 280.0,485.0 360.0,485.0" fill="#0f8c7e"/>
  <polygon points="360.0,485.0 320.0,415.7 400.0,415.7" fill="#808b88"/>
  <polygon points="400.0,415.7 360.0,485.0 440.0,485.0" fill="#808b88"/>
  <polygon points="440.0,485.0 400.0,415.7 480.0,415.7" fill="#eceeec"/>
  <polygon points="480.0,415.7 440.0,485.0 520.0,485.0" fill="#eceeec"/>
  <polygon points="520.0,485.0 480.0,415.7 560.0,415.7" fill="#bcc1be"/>
  <polygon points="560.0,415.7 520.0,485.0 600.0,485.0" fill="#bcc1be"/>
  <polygon points="600.0,485.0 560.0,415.7 640.0,415.7" fill="#808b88"/>
  <polygon points="640.0,415.7 600.0,485.0 680.0,485.0" fill="#2c3e3d"/>
  <polygon points="680.0,485.0 640.0,415.7 720.0,415.7" fill="#2c3e3d"/>
  <polygon points="720.0,415.7 680.0,485.0 760.0,485.0" fill="#2c3e3d"/>
  <polygon points="-40.0,485.0 -80.0,554.3 0.0,554.3" fill="#14201c"/>
  <polygon points="-80.0,554.3 -120.0,485.0 -40.0,485.0" fill="#14201c"/>
  <polygon points="40.0,485.0 0.0,554.3 80.0,554.3" fill="#16b8a3"/>
  <polygon points="0.0,554.3 -40.0,485.0 40.0,485.0" fill="#14201c"/>
  <polygon points="120.0,485.0 80.0,554.3 160.0,554.3" fill="#16b8a3"/>
  <polygon points="80.0,554.3 40.0,485.0 120.0,485.0" fill="#16b8a3"/>
  <polygon points="200.0,485.0 160.0,554.3 240.0,554.3" fill="#16b8a3"/>
  <polygon points="160.0,554.3 120.0,485.0 200.0,485.0" fill="#16b8a3"/>
  <polygon points="280.0,485.0 240.0,554.3 320.0,554.3" fill="#16b8a3"/>
  <polygon points="240.0,554.3 200.0,485.0 280.0,485.0" fill="#16b8a3"/>
  <polygon points="360.0,485.0 320.0,554.3 400.0,554.3" fill="#16b8a3"/>
  <polygon points="320.0,554.3 280.0,485.0 360.0,485.0" fill="#16b8a3"/>
  <polygon points="440.0,485.0 400.0,554.3 480.0,554.3" fill="#14201c"/>
  <polygon points="400.0,554.3 360.0,485.0 440.0,485.0" fill="#eceeec"/>
  <polygon points="520.0,485.0 480.0,554.3 560.0,554.3" fill="#eceeec"/>
  <polygon points="480.0,554.3 440.0,485.0 520.0,485.0" fill="#bcc1be"/>
  <polygon points="600.0,485.0 560.0,554.3 640.0,554.3" fill="#eceeec"/>
  <polygon points="560.0,554.3 520.0,485.0 600.0,485.0" fill="#eceeec"/>
  <polygon points="680.0,485.0 640.0,554.3 720.0,554.3" fill="#2c3e3d"/>
  <polygon points="640.0,554.3 600.0,485.0 680.0,485.0" fill="#2c3e3d"/>
  <polygon points="720.0,554.3 680.0,485.0 760.0,485.0" fill="#2c3e3d"/>
  <polygon points="-80.0,554.3 -120.0,623.5 -40.0,623.5" fill="#16b8a3"/>
  <polygon points="-40.0,623.5 -80.0,554.3 0.0,554.3" fill="#16b8a3"/>
  <polygon points="0.0,554.3 -40.0,623.5 40.0,623.5" fill="#16b8a3"/>
  <polygon points="40.0,623.5 0.0,554.3 80.0,554.3" fill="#16b8a3"/>
  <polygon points="80.0,554.3 40.0,623.5 120.0,623.5" fill="#16b8a3"/>
  <polygon points="120.0,623.5 80.0,554.3 160.0,554.3" fill="#16b8a3"/>
  <polygon points="160.0,554.3 120.0,623.5 200.0,623.5" fill="#16b8a3"/>
  <polygon points="200.0,623.5 160.0,554.3 240.0,554.3" fill="#16b8a3"/>
  <polygon points="240.0,554.3 200.0,623.5 280.0,623.5" fill="#16b8a3"/>
  <polygon points="280.0,623.5 240.0,554.3 320.0,554.3" fill="#16b8a3"/>
  <polygon points="320.0,554.3 280.0,623.5 360.0,623.5" fill="#16b8a3"/>
  <polygon points="360.0,623.5 320.0,554.3 400.0,554.3" fill="#eceeec"/>
  <polygon points="400.0,554.3 360.0,623.5 440.0,623.5" fill="#14201c"/>
  <polygon points="440.0,623.5 400.0,554.3 480.0,554.3" fill="#808b88"/>
  <polygon points="480.0,554.3 440.0,623.5 520.0,623.5" fill="#eceeec"/>
  <polygon points="520.0,623.5 480.0,554.3 560.0,554.3" fill="#eceeec"/>
  <polygon points="560.0,554.3 520.0,623.5 600.0,623.5" fill="#16b8a3"/>
  <polygon points="600.0,623.5 560.0,554.3 640.0,554.3" fill="#16b8a3"/>
  <polygon points="640.0,554.3 600.0,623.5 680.0,623.5" fill="#2c3e3d"/>
  <polygon points="680.0,623.5 640.0,554.3 720.0,554.3" fill="#2c3e3d"/>
  <polygon points="720.0,554.3 680.0,623.5 760.0,623.5" fill="#2c3e3d"/>
  <polygon points="-40.0,623.5 -80.0,692.8 0.0,692.8" fill="#16b8a3"/>
  <polygon points="-80.0,692.8 -120.0,623.5 -40.0,623.5" fill="#16b8a3"/>
  <polygon points="40.0,623.5 0.0,692.8 80.0,692.8" fill="#16b8a3"/>
  <polygon points="0.0,692.8 -40.0,623.5 40.0,623.5" fill="#16b8a3"/>
  <polygon points="120.0,623.5 80.0,692.8 160.0,692.8" fill="#16b8a3"/>
  <polygon points="80.0,692.8 40.0,623.5 120.0,623.5" fill="#16b8a3"/>
  <polygon points="200.0,623.5 160.0,692.8 240.0,692.8" fill="#16b8a3"/>
  <polygon points="160.0,692.8 120.0,623.5 200.0,623.5" fill="#16b8a3"/>
  <polygon points="280.0,623.5 240.0,692.8 320.0,692.8" fill="#16b8a3"/>
  <polygon points="240.0,692.8 200.0,623.5 280.0,623.5" fill="#16b8a3"/>
  <polygon points="360.0,623.5 320.0,692.8 400.0,692.8" fill="#eceeec"/>
  <polygon points="320.0,692.8 280.0,623.5 360.0,623.5" fill="#eceeec"/>
  <polygon points="440.0,623.5 400.0,692.8 480.0,692.8" fill="#eceeec"/>
  <polygon points="400.0,692.8 360.0,623.5 440.0,623.5" fill="#bcc1be"/>
  <polygon points="520.0,623.5 480.0,692.8 560.0,692.8" fill="#0f8c7e"/>
  <polygon points="480.0,692.8 440.0,623.5 520.0,623.5" fill="#eceeec"/>
  <polygon points="600.0,623.5 560.0,692.8 640.0,692.8" fill="#808b88"/>
  <polygon points="560.0,692.8 520.0,623.5 600.0,623.5" fill="#16b8a3"/>
  <polygon points="680.0,623.5 640.0,692.8 720.0,692.8" fill="#2c3e3d"/>
  <polygon points="640.0,692.8 600.0,623.5 680.0,623.5" fill="#2c3e3d"/>
  <polygon points="720.0,692.8 680.0,623.5 760.0,623.5" fill="#2c3e3d"/>
  <polygon points="-40.0,762.1 -80.0,692.8 0.0,692.8" fill="#16b8a3"/>
  <polygon points="40.0,762.1 0.0,692.8 80.0,692.8" fill="#16b8a3"/>
  <polygon points="120.0,762.1 80.0,692.8 160.0,692.8" fill="#16b8a3"/>
  <polygon points="200.0,762.1 160.0,692.8 240.0,692.8" fill="#16b8a3"/>
  <polygon points="280.0,762.1 240.0,692.8 320.0,692.8" fill="#16b8a3"/>
  <polygon points="360.0,762.1 320.0,692.8 400.0,692.8" fill="#eceeec"/>
  <polygon points="440.0,762.1 400.0,692.8 480.0,692.8" fill="#eceeec"/>
  <polygon points="520.0,762.1 480.0,692.8 560.0,692.8" fill="#0f8c7e"/>
  <polygon points="600.0,762.1 560.0,692.8 640.0,692.8" fill="#808b88"/>
  <polygon points="680.0,762.1 640.0,692.8 720.0,692.8" fill="#2c3e3d"/>
</svg>
