<svg xmlns="http://www.w3.org/2000/svg" viewBox="0 0 64 64"><g transform="translate(11.429 7.000) scale(0.07321)"><g transform="translate(0.000000,683.000000) scale(0.100000,-0.100000)"
fill="currentColor" stroke="none">
<path d="M1414 6720 c-29 -12 -1287 -1285 -1301 -1318 -13 -30 -18 -3872 -5
-3903 4 -10 266 -278 582 -598 316 -320 576 -589 578 -599 2 -10 43 -59 93
-108 l89 -89 1343 -3 c738 -1 1353 0 1366 3 30 8 179 150 195 186 6 15 271
289 589 610 l577 583 0 1964 0 1964 -637 645 c-350 354 -649 651 -664 659 -23
12 -119 14 -559 14 l-531 0 -24 -25 -25 -24 0 -238 c0 -258 -5 -293 -52 -360
-109 -159 -372 -132 -451 47 -18 40 -20 71 -23 292 -4 261 -7 282 -50 298 -31
12 -1060 12 -1090 0z m926 -383 c0 -234 24 -315 130 -431 181 -197 509 -196
692 3 102 112 128 198 128 433 l0 168 414 0 413 0 562 -569 562 -570 -108 -73
c-59 -40 -277 -184 -483 -320 l-374 -248 -242 241 c-423 422 -608 600 -632
610 -35 14 -1158 12 -1185 -2 -12 -6 -212 -200 -443 -431 l-422 -420 -413 274
c-228 150 -444 294 -481 318 -37 25 -67 48 -65 52 1 4 214 223 472 485 259
263 508 517 555 566 l85 87 417 0 418 0 0 -173z m1398 -1381 l412 -411 0
-1105 0 -1105 -283 -290 c-155 -160 -344 -355 -419 -433 l-137 -142 -499 0
-499 0 -259 268 c-142 147 -332 341 -421 432 l-163 165 0 1100 0 1100 418 417
417 418 490 2 c270 2 499 1 510 -1 11 -2 206 -188 433 -415z m-2939 -120 l461
-306 0 -1094 0 -1094 -187 -123 c-104 -68 -316 -208 -471 -311 -156 -103 -286
-188 -288 -188 -2 0 -4 772 -4 1716 0 1469 2 1715 14 1711 8 -3 222 -143 475
-311z m4509 -2254 l-3 -860 -465 308 -465 308 -2 1098 -2 1099 310 205 c171
113 381 252 467 308 l157 104 3 -855 c1 -471 1 -1242 0 -1715z m-434 -832
c196 -129 356 -239 356 -244 0 -8 -1075 -1096 -1091 -1104 -4 -1 -42 50 -86
115 -93 137 -251 365 -420 607 -65 93 -124 180 -131 193 -16 29 -45 -3 436
490 l333 342 124 -82 c68 -45 284 -188 479 -317z m-3250 123 c143 -148 318
-327 389 -400 l130 -131 -230 -339 c-127 -186 -272 -400 -323 -475 l-93 -138
-315 323 c-173 177 -420 427 -549 555 -128 129 -233 237 -233 242 0 11 937
630 954 630 5 0 127 -120 270 -267z m1738 -735 c423 -606 558 -803 558 -812 0
-3 -497 -6 -1105 -6 l-1105 0 159 238 c88 130 192 284 231 342 40 58 106 155
147 215 42 61 83 118 91 128 14 16 50 17 477 17 l461 0 86 -122z"/>
</g></g></svg>
